<svg xmlns="http://www.w3.org/2000/svg" width="170" height="150" viewBox="0 0 170 150"><g font-family="Georgia,serif" font-weight="700"><text x="18" y="52" font-size="40" fill="rgba(240,90,40,0.13)">?</text><text x="112" y="128" font-size="28" fill="rgba(15,17,21,0.07)">?</text></g><path d="M96 22 h48 a8 8 0 0 1 8 8 v20 a8 8 0 0 1 -8 8 h-30 l-10 9 v-9 h-8 a8 8 0 0 1 -8 -8 v-20 a8 8 0 0 1 8 -8z" fill="none" stroke="rgba(15,17,21,0.08)" stroke-width="1.6"/><path d="M14 96 h36 a7 7 0 0 1 7 7 v14 a7 7 0 0 1 -7 7 h-22 l-8 7 v-7 h-6 a7 7 0 0 1 -7 -7 v-14 a7 7 0 0 1 7 -7z" fill="none" stroke="rgba(240,90,40,0.14)" stroke-width="1.6"/></svg>
